# xmcd CD database file
#
# Track frame offsets:
#	150
#	19897
#	36779
#	51648
#	72680
#	87189
#	101626
#	125288
#	141126
#	160103
#
# Disc length: 2296 seconds
#
# Revision: 1
# Processed by: cddbd v1.5.2PL0 Copyright (c) Steve Scherf et al.
# Submitted via: CDex 1.50beta10
#
DISCID=8c08f60a
DTITLE=Charlie Daniels Band - Midnight Wind
DYEAR=1977
DGENRE=Southern Rock
TTITLE0=Midnight Wind
TTITLE1=Sugar Hill Saturday Night
TTITLE2=Heaven Can Be Anywhere
TTITLE3=Maria Teresa
TTITLE4=Indian Man
TTITLE5=Grapes Of Wrath
TTITLE6=Redneck Fiddlin' Man
TTITLE7=Ode To Sweet Smoky
TTITLE8=Good Ole Boy
TTITLE9=Black Bayou
EXTD=YEAR: 1977
EXTT0=
EXTT1=
EXTT2=
EXTT3=
EXTT4=
EXTT5=
EXTT6=
EXTT7=
EXTT8=
EXTT9=
PLAYORDER=
